<?xml version="1.0" encoding="UTF-8"?><svg id="Calque_2" xmlns="http://www.w3.org/2000/svg" viewBox="0 0 595.3 199.9"><defs><style>.cls-1{fill:#fff;}</style></defs><path class="cls-1" d="M491.3,198.3c-2.4,0-4.8-.6-7-1.7-7.3-3.9-10.1-12.9-6.3-20.3L565.3,11c3.9-7.3,12.9-10.2,20.3-6.3,7.3,3.9,10.1,12.9,6.3,20.3l-87.3,165.2c-2.7,5.1-7.9,8-13.3,8Z"/><path class="cls-1" d="M15.8,178.8c-5.5,0-10.9-3.1-13.5-8.4-3.7-7.4-.6-16.4,6.8-20.1l103.5-51.2L9.1,47c-7.4-3.7-10.4-12.7-6.7-20.2,3.7-7.4,12.7-10.4,20.2-6.7l130.5,65.6c5.1,2.6,8.3,7.8,8.3,13.5,0,5.7-3.3,10.9-8.4,13.4L22.5,177.2c-2.1,1.1-4.4,1.6-6.6,1.6Z"/><path class="cls-1" d="M322.6,178.9c-5.5,0-10.9-3.1-13.5-8.4l-51.2-103.5-52.1,103.6c-3.7,7.4-12.7,10.4-20.2,6.7-7.4-3.7-10.4-12.8-6.7-20.2L244.6,26.7c2.6-5.1,7.1-8.4,13.5-8.3,5.7,0,10.9,3.3,13.4,8.4l64.6,130.4c3.7,7.4.6,16.4-6.8,20.1-2.1,1.1-4.4,1.6-6.6,1.6Z"/><path class="cls-1" d="M417.9,178.9h0c-5.7,0-10.9-3.3-13.4-8.4l-64.6-130.4c-3.7-7.4-.6-16.4,6.8-20.1,7.4-3.7,16.4-.6,20.1,6.8l51.2,103.5,52.1-103.6c3.7-7.4,12.7-10.4,20.2-6.7,7.4,3.7,10.4,12.8,6.7,20.2l-65.6,130.4c-2.6,5.1-7.7,8.3-13.4,8.3Z"/></svg>